<svg xmlns="http://www.w3.org/2000/svg" viewBox="0 0 512 512">
  <defs>
    <radialGradient id="bg" cx="48%" cy="42%" r="72%">
      <stop offset="0%" stop-color="#1e1244"/>
      <stop offset="100%" stop-color="#07061a"/>
    </radialGradient>
    <linearGradient id="gold" x1="10%" y1="0%" x2="90%" y2="100%">
      <stop offset="0%" stop-color="#ffe978"/>
      <stop offset="45%" stop-color="#f5c518"/>
      <stop offset="100%" stop-color="#c8890a"/>
    </linearGradient>
    <linearGradient id="goldRefl" x1="0%" y1="0%" x2="100%" y2="0%">
      <stop offset="0%" stop-color="#c8890a"/>
      <stop offset="50%" stop-color="#f5c518"/>
      <stop offset="100%" stop-color="#c8890a"/>
    </linearGradient>
    <filter id="goldGlow" x="-25%" y="-25%" width="150%" height="150%">
      <feGaussianBlur stdDeviation="7" result="blur"/>
      <feColorMatrix type="matrix"
        values="1 0.6 0 0 0.1  0.6 0.4 0 0 0  0 0 0 0 0  0 0 0 0.9 0"
        in="blur" result="tinted"/>
      <feMerge>
        <feMergeNode in="tinted"/>
        <feMergeNode in="SourceGraphic"/>
      </feMerge>
    </filter>
    <filter id="purpGlow" x="-15%" y="-15%" width="130%" height="130%">
      <feGaussianBlur stdDeviation="4" result="blur"/>
      <feMerge>
        <feMergeNode in="blur"/>
        <feMergeNode in="SourceGraphic"/>
      </feMerge>
    </filter>
    <clipPath id="sharkClip">
      <!-- clip candlesticks to shark body area -->
      <path d="M 78,263 C 95,242 115,228 140,218 C 162,209 183,207 200,195
               C 218,182 228,162 242,138 L 255,112 C 259,104 267,103 272,113
               C 277,124 270,144 260,162 C 252,176 246,186 260,188
               C 276,191 305,184 336,179 C 364,174 396,180 418,198
               C 436,213 444,233 447,254 L 451,262
               C 448,270 438,278 418,283 C 390,289 355,283 315,274
               C 295,269 275,267 264,273 C 253,280 254,295 256,308
               C 259,321 260,333 254,342 C 248,350 238,352 228,346
               C 218,340 212,330 208,318 C 202,303 196,286 178,285
               C 158,284 125,295 90,308 L 78,290 Z"/>
    </clipPath>
  </defs>

  <!-- Background -->
  <rect width="512" height="512" rx="82" fill="url(#bg)"/>

  <!-- Purple hexagon outer ring -->
  <polygon points="256,22 468,138 468,374 256,490 44,374 44,138"
           fill="none" stroke="#7c3aed" stroke-width="4.5" opacity="0.45"
           filter="url(#purpGlow)"/>

  <!-- Purple diamond inner ring -->
  <polygon points="256,52 460,256 256,460 52,256"
           fill="none" stroke="#a855f7" stroke-width="3" opacity="0.60"
           filter="url(#purpGlow)"/>

  <!-- ── SHARK BODY ─────────────────────────────────────────── -->
  <!-- Filled translucent body (shows candlesticks through) -->
  <path d="M 78,263 C 95,242 115,228 140,218 C 162,209 183,207 200,195
           C 218,182 228,162 242,138 L 255,112 C 259,104 267,103 272,113
           C 277,124 270,144 260,162 C 252,176 246,186 260,188
           C 276,191 305,184 336,179 C 364,174 396,180 418,198
           C 436,213 444,233 447,254 L 451,262
           C 448,270 438,278 418,283 C 390,289 355,283 315,274
           C 295,269 275,267 264,273 C 253,280 254,295 256,308
           C 259,321 260,333 254,342 C 248,350 238,352 228,346
           C 218,340 212,330 208,318 C 202,303 196,286 178,285
           C 158,284 125,295 90,308 L 78,290 Z"
        fill="#0d0925" opacity="0.72"/>

  <!-- Gold outline stroke -->
  <path d="M 78,263 C 95,242 115,228 140,218 C 162,209 183,207 200,195
           C 218,182 228,162 242,138 L 255,112 C 259,104 267,103 272,113
           C 277,124 270,144 260,162 C 252,176 246,186 260,188
           C 276,191 305,184 336,179 C 364,174 396,180 418,198
           C 436,213 444,233 447,254 L 451,262
           C 448,270 438,278 418,283 C 390,289 355,283 315,274
           C 295,269 275,267 264,273 C 253,280 254,295 256,308
           C 259,321 260,333 254,342 C 248,350 238,352 228,346
           C 218,340 212,330 208,318 C 202,303 196,286 178,285
           C 158,284 125,295 90,308 L 78,290 Z"
        fill="none" stroke="url(#gold)" stroke-width="5.5" stroke-linejoin="round"
        filter="url(#goldGlow)"/>

  <!-- ── CANDLESTICK BARS (inside shark) ────────────────────── -->
  <g clip-path="url(#sharkClip)" opacity="0.92">
    <!-- Wick lines -->
    <line x1="218" y1="202" x2="218" y2="214" stroke="#38bdf8" stroke-width="2.5"/>
    <line x1="218" y1="252" x2="218" y2="262" stroke="#38bdf8" stroke-width="2.5"/>
    <line x1="244" y1="193" x2="244" y2="205" stroke="#fbbf24" stroke-width="2.5"/>
    <line x1="244" y1="248" x2="244" y2="258" stroke="#fbbf24" stroke-width="2.5"/>
    <line x1="270" y1="184" x2="270" y2="196" stroke="#38bdf8" stroke-width="2.5"/>
    <line x1="270" y1="246" x2="270" y2="256" stroke="#38bdf8" stroke-width="2.5"/>
    <line x1="296" y1="176" x2="296" y2="188" stroke="#fbbf24" stroke-width="2.5"/>
    <line x1="296" y1="244" x2="296" y2="256" stroke="#fbbf24" stroke-width="2.5"/>
    <line x1="322" y1="181" x2="322" y2="193" stroke="#38bdf8" stroke-width="2.5"/>
    <line x1="322" y1="240" x2="322" y2="252" stroke="#38bdf8" stroke-width="2.5"/>
    <!-- Candle bodies -->
    <rect x="211" y="214" width="14" height="38" rx="2" fill="#38bdf8"/>
    <rect x="237" y="205" width="14" height="43" rx="2" fill="#fbbf24"/>
    <rect x="263" y="196" width="14" height="50" rx="2" fill="#38bdf8"/>
    <rect x="289" y="188" width="14" height="56" rx="2" fill="#fbbf24"/>
    <rect x="315" y="193" width="14" height="47" rx="2" fill="#38bdf8"/>
  </g>

  <!-- Shark eye -->
  <circle cx="420" cy="244" r="9" fill="#07061a"/>
  <circle cx="422" cy="242" r="3.5" fill="#f5c518" opacity="0.85"/>

  <!-- Shark gill lines -->
  <line x1="390" y1="222" x2="390" y2="248" stroke="url(#gold)" stroke-width="2" opacity="0.5" stroke-linecap="round"/>
  <line x1="382" y1="218" x2="382" y2="246" stroke="url(#gold)" stroke-width="2" opacity="0.4" stroke-linecap="round"/>

  <!-- ── REFLECTION (mirrored shark below) ─────────────────── -->
  <g opacity="0.12" transform="translate(0,512) scale(1,-1)">
    <path d="M 78,263 C 95,242 115,228 140,218 C 162,209 183,207 200,195
             C 218,182 228,162 242,138 L 255,112 C 259,104 267,103 272,113
             C 277,124 270,144 260,162 C 252,176 246,186 260,188
             C 276,191 305,184 336,179 C 364,174 396,180 418,198
             C 436,213 444,233 447,254 L 451,262
             C 448,270 438,278 418,283 C 390,289 355,283 315,274
             C 295,269 275,267 264,273 C 253,280 254,295 256,308
             C 259,321 260,333 254,342 C 248,350 238,352 228,346
             C 218,340 212,330 208,318 C 202,303 196,286 178,285
             C 158,284 125,295 90,308 L 78,290 Z"
          fill="url(#goldRefl)" stroke="none"/>
  </g>

  <!-- "GEX" text label (visible at 512px, brand mark) -->
  <text x="256" y="408" text-anchor="middle"
        font-family="Arial Black, sans-serif" font-weight="900" font-size="52"
        fill="url(#gold)" letter-spacing="6" opacity="0.88"
        filter="url(#goldGlow)">GEX</text>
</svg>
